<svg xmlns="http://www.w3.org/2000/svg" viewBox="0 0 100 100">
  <!-- 背景圆 -->
  <circle cx="50" cy="50" r="48" fill="#f0f0f0" stroke="#333" stroke-width="2"/>
  
  <!-- 齿轮 -->
  <path d="M50 25
           a 25,25 0 0,1 0,50
           a 25,25 0 0,1 0,-50
           M50 35
           a 15,15 0 0,1 0,30
           a 15,15 0 0,1 0,-30
           M50 42
           a 8,8 0 0,1 0,16
           a 8,8 0 0,1 0,-16
           M50 15 L50 35 M50 65 L50 85
           M15 50 L35 50 M65 50 L85 50
           M26 26 L39 39 M74 74 L61 61
           M26 74 L39 61 M74 26 L61 39"
        fill="none" stroke="#555" stroke-width="3" stroke-linecap="round"/>
  
  <!-- 保护罩 -->
  <path d="M50 15
           Q 70 25, 75 50
           Q 70 75, 50 85
           Q 30 75, 25 50
           Q 30 25, 50 15"
        fill="none" stroke="#4a90e2" stroke-width="4" stroke-linecap="round"/>
  
  <!-- 碰撞标志 -->
  <path d="M40 50 L60 50 M50 40 L50 60" 
        stroke="#e74c3c" stroke-width="4" stroke-linecap="round"/>
</svg>
